<?xml version="1.0" encoding="UTF-8"?>
<svg width="300px" height="300px" viewBox="0 0 300 300" version="1.1" xmlns="http://www.w3.org/2000/svg" xmlns:xlink="http://www.w3.org/1999/xlink">
    <!-- Generator: Sketch 49.3 (51167) - http://www.bohemiancoding.com/sketch -->
    <title>icon-chat</title>
    <desc>Created with Sketch.</desc>
    <defs></defs>
    <g id="icon-chat" stroke="none" stroke-width="1" fill="none" fill-rule="evenodd">
        <path d="M221.561539,107.03125 L221.952633,112.5 L221.952633,117.3828 L221.952633,121.875 C221.952633,134.375075 219.606094,145.800725 214.91294,156.15235 C210.219787,166.50395 203.734208,175.3906 195.456005,182.8125 C187.177801,190.2344 177.302783,195.996075 165.830623,200.09765 C154.358489,204.19925 141.778426,206.25 128.090059,206.25 L115.966143,206.25 L109.317544,206.25 C116.748357,213.5417 124.993846,219.2708 134.054237,223.4375 C143.114629,227.604187 153.641479,229.6875 165.635089,229.6875 C168.242391,229.6875 170.78449,229.589845 173.261436,229.39453 C175.738356,229.199218 178.215277,228.906252 180.692198,228.515625 L215.695128,250 L215.695128,214.64845 C220.388282,211.393225 224.690267,207.714875 228.601232,203.613275 C232.512198,199.5117 235.803871,195.0521 238.476351,190.234375 C241.148856,185.41665 243.234658,180.371125 244.733856,175.09765 C246.233054,169.8242 246.982653,164.32295 246.982653,158.59375 C246.982653,148.43745 244.701292,138.932325 240.138495,130.078125 C235.575722,121.223925 229.383471,113.5417 221.561539,107.03125 Z M113.228485,192.1875 C115.705431,192.578125 119.192638,192.9362 123.690257,193.261725 C128.187852,193.58725 131.740262,193.75 134.347564,193.75 C145.558986,193.75 155.792509,191.7969 165.048435,187.890625 C174.304386,183.98435 182.22396,178.710975 188.807406,172.0703 C195.390851,165.42965 200.475024,157.7149 204.060074,148.925775 C207.645124,140.136675 209.437623,130.859425 209.437623,121.09375 C209.437623,111.328075 207.286619,102.115925 202.984584,93.457025 C198.682524,84.798125 193.011698,77.246125 185.97198,70.800775 C178.932262,64.355425 170.914896,59.27735 161.919683,55.5664 C152.924494,51.85545 143.733872,50 134.347564,50 C123.136143,50 112.576703,51.85545 102.668945,55.5664 C92.7611876,59.27735 84.1246043,64.355425 76.7589653,70.800775 C69.3933213,77.246125 63.5921512,84.798125 59.3552772,93.457025 C55.118405,102.115925 53,111.328075 53,121.09375 C53,132.421925 55.118405,142.8385 59.3552772,152.34375 C63.5921512,161.849 69.8170045,170.11715 78.0300198,177.14845 L78.0300198,212.5 L113.228485,192.1875 Z M168.763841,112.5 C171.371143,112.5 173.587326,113.41145 175.41244,115.234375 C177.237554,117.0573 178.150099,119.270825 178.150099,121.875 C178.150099,124.479175 177.237554,126.6927 175.41244,128.515625 C173.587326,130.33855 171.371143,131.25 168.763841,131.25 C166.156539,131.25 163.940356,130.33855 162.115242,128.515625 C160.290128,126.6927 159.377584,124.479175 159.377584,121.875 C159.377584,119.270825 160.290128,117.0573 162.115242,115.234375 C163.940356,113.41145 166.156539,112.5 168.763841,112.5 Z M131.218812,112.5 C133.826114,112.5 136.042297,113.41145 137.867411,115.234375 C139.692525,117.0573 140.605069,119.270825 140.605069,121.875 C140.605069,124.479175 139.692525,126.6927 137.867411,128.515625 C136.042297,130.33855 133.826114,131.25 131.218812,131.25 C128.61151,131.25 126.395327,130.33855 124.570213,128.515625 C122.745099,126.6927 121.832554,124.479175 121.832554,121.875 C121.832554,119.270825 122.745099,117.0573 124.570213,115.234375 C126.395327,113.41145 128.61151,112.5 131.218812,112.5 Z M93.6737821,112.5 C96.2810842,112.5 98.4972672,113.41145 100.322381,115.234375 C102.147495,117.0573 103.06004,119.270825 103.06004,121.875 C103.06004,124.479175 102.147495,126.6927 100.322381,128.515625 C98.4972672,130.33855 96.2810842,131.25 93.6737821,131.25 C91.06648,131.25 88.8502971,130.33855 87.0251831,128.515625 C85.2000692,126.6927 84.2875247,124.479175 84.2875247,121.875 C84.2875247,119.270825 85.2000692,117.0573 87.0251831,115.234375 C88.8502971,113.41145 91.06648,112.5 93.6737821,112.5 Z" id="Bubble" fill="#00BBFF"></path>
    </g>
</svg>